# xmcd
#
# Track frame offsets:
#	150
#	15323
#	28253
#	45303
#	59715
#	73313
#	87078
#	99528
#	116594
#	128048
#	140329
#	154597
#	164913
#
# Disc length: 2405 seconds
#
# Revision: 1
# Processed by: cddbd v1.4PL0 Copyright (c) Steve Scherf et al.
# Submitted via: dBpowerAMP V4.0
#
DISCID=b109630d
DTITLE=Jenny jenssen  - Blå Rose
DYEAR=1900
DGENRE=country
TTITLE0=Frøken Kjærlighet
TTITLE1=Min Barndomsdal
TTITLE2=Blå Rose
TTITLE3=Tru ka du vil
TTITLE4=Æ elske dæ
TTITLE5=Det e over
TTITLE6=Kem e denne gutten?
TTITLE7=Kver og en av oss
TTITLE8=Hvis du trur
TTITLE9=Ka ska æ si?
TTITLE10=Ingen veit
TTITLE11=Vi elska natta lang
TTITLE12=Pappas fang
EXTD=Jenny jenssen \nBlå Rose
EXTT0=
EXTT1=
EXTT2=
EXTT3=
EXTT4=
EXTT5=
EXTT6=
EXTT7=
EXTT8=
EXTT9=
EXTT10=
EXTT11=
EXTT12=
PLAYORDER=
